<svg xmlns="http://www.w3.org/2000/svg" viewBox="0 0 24 24" fill="#FF9900">
  <path d="M6.763 10.036c0 .296.032.535.088.71.064.176.144.368.256.576.04.063.056.127.056.183 0 .08-.048.16-.152.24l-.503.335c-.072.048-.144.072-.208.072-.08 0-.16-.04-.239-.112a2.417 2.417 0 0 1-.287-.375 6.18 6.18 0 0 1-.248-.471c-.622.734-1.405 1.101-2.347 1.101-.67 0-1.205-.191-1.596-.574-.391-.383-.591-.894-.591-1.533 0-.678.239-1.23.726-1.644.487-.415 1.133-.623 1.955-.623.27 0 .551.024.847.064.296.04.6.104.918.176v-.583c0-.607-.127-1.031-.375-1.277-.255-.246-.686-.367-1.293-.367-.28 0-.568.032-.863.104-.295.072-.583.16-.863.272-.128.056-.224.088-.279.104a.49.49 0 0 1-.127.023c-.112 0-.168-.08-.168-.248v-.391c0-.128.016-.224.056-.28a.598.598 0 0 1 .24-.16 4.96 4.96 0 0 1 .967-.272 5.735 5.735 0 0 1 1.15-.113c.847 0 1.467.192 1.858.583.383.391.579.99.579 1.797v2.362zm-3.24 1.214c.263 0 .535-.048.823-.144.287-.096.543-.271.758-.513.128-.152.224-.32.279-.503.056-.183.088-.399.088-.647v-.311a6.66 6.66 0 0 0-.735-.136 6.02 6.02 0 0 0-.75-.048c-.535 0-.926.104-1.19.32-.263.215-.39.518-.39.91 0 .375.095.655.287.846.2.191.47.286.83.286zm6.415.838c-.144 0-.24-.024-.304-.08-.064-.048-.12-.16-.168-.311L7.586 5.861c-.048-.16-.072-.263-.072-.32 0-.128.064-.2.191-.2h.783c.151 0 .255.025.31.08.065.048.113.16.169.312l1.366 5.391 1.27-5.391c.047-.16.095-.264.168-.312.072-.048.177-.08.32-.08h.639c.151 0 .255.025.32.08.072.048.127.16.168.312l1.286 5.463 1.406-5.463c.056-.16.112-.264.169-.312.072-.048.167-.08.31-.08h.742c.128 0 .2.065.2.2 0 .04-.009.08-.017.128-.008.048-.024.112-.056.2l-1.928 6.185c-.048.16-.104.263-.168.311-.064.056-.16.08-.304.08h-.687c-.151 0-.255-.024-.32-.08-.072-.048-.128-.16-.168-.32L9.48 8.394 8.185 11.697c-.048.16-.104.272-.168.32-.064.056-.177.08-.32.08h-.686zm10.662.271c-.415 0-.83-.048-1.245-.144-.415-.096-.742-.2-.99-.32-.127-.063-.215-.135-.247-.2-.032-.063-.056-.16-.056-.279v-.408c0-.167.064-.247.18-.247.048 0 .096.008.144.024.048.016.12.048.200.08.271.12.56.215.863.279.304.064.607.096.918.096.487 0 .863-.08 1.117-.248.255-.168.39-.406.39-.715 0-.215-.08-.406-.24-.567-.159-.16-.454-.32-.878-.455l-1.261-.399c-.639-.2-1.108-.495-1.4-.886-.295-.39-.439-.838-.439-1.34 0-.383.08-.719.24-1.013.159-.295.375-.543.647-.75.271-.2.583-.36.942-.455a4.835 4.835 0 0 1 1.184-.143c.183 0 .375.016.567.04.191.024.375.064.551.104.168.048.328.096.479.16.151.063.271.127.36.2.087.071.151.151.191.23.04.087.064.183.064.295v.375c0 .168-.064.256-.184.256-.063 0-.16-.032-.279-.08-.383-.2-.814-.296-1.293-.296-.44 0-.783.072-1.021.224-.239.151-.36.375-.36.679 0 .215.087.398.255.551.168.152.487.32.957.486l1.237.391c.631.2 1.085.479 1.357.846.271.368.407.798.407 1.277 0 .391-.08.742-.231 1.045-.16.304-.375.567-.647.783-.271.224-.591.383-.966.495-.375.112-.774.167-1.205.167zM24 14.589l-2.808-8.131a.506.506 0 0 0-.478-.338h-1.303a.506.506 0 0 0-.478.338L16.125 14.59c-.016.047-.024.094-.024.142 0 .278.226.504.504.504h.97c.251 0 .465-.185.502-.434l.466-1.351h2.449l.466 1.351c.037.249.251.434.502.434h.97c.278 0 .504-.226.504-.504a.502.502 0 0 0-.024-.142zm-2.667-2.183h-1.845l.923-2.674.922 2.674z"/>
</svg>
