<svg xmlns="http://www.w3.org/2000/svg" viewBox="0 0 24 24" fill="#000000">
  <path d="M11.5725 0c-.1763 0-.3098.0013-.3584.0067-.0516.0053-.2159.021-.3636.0328-3.4088.3073-6.6017 2.1463-8.624 4.9728C1.1004 6.584.3802 8.3666.1082 10.255c-.0962.659-.108.8537-.108 1.7474s.012 1.0884.108 1.7476c.652 4.506 3.8591 8.2919 8.2087 9.6945.7789.2511 1.6.4223 2.5337.5255.3636.04 1.9354.04 2.299 0 1.6117-.1783 2.9772-.577 4.3237-1.2643.2065-.1056.2464-.1337.2183-.1573-.0188-.0139-.8987-1.1938-1.9543-2.62l-1.919-2.592-2.4047-3.5583c-1.3231-1.9564-2.4117-3.556-2.4211-3.556-.0094-.0026-.0187 1.5787-.0235 3.509-.0067 3.3802-.0093 3.5162-.0516 3.596-.061.115-.108.1618-.2064.2134-.075.0374-.1408.0445-.5429.0445h-.4570l-.0704-.0473c-.0516-.0351-.0938-.0819-.1174-.1262l-.0353-.0703.0067-4.6855L7.6847.4296c.0516-.2758.1516-.4015.3998-.5078.1064-.0421.2077-.0503.76-.0503C9.0137 0 9.1919.0016 9.2865.0047 9.6179.0141 9.9494.0611 10.274.1282c.7091.1431 1.3831.4318 1.9536.835.1972.1388.5886.5456.5886.61 0 .0204-.2847.4277-.6354.9062L10.2721 4.24 8.9997 5.9384l-.0939-.063C7.8062 5.212 6.6306 4.8 5.367 4.8c-1.7226 0-3.3139.6504-4.498 1.8397-1.1842 1.1893-1.7862 2.7656-1.7862 4.4881 0 1.7226.6020 3.2988 1.7862 4.4881 1.1841 1.1893 2.7754 1.8397 4.498 1.8397 1.2636 0 2.4392-.412 3.4309-1.0754l.0939-.063 1.2724 1.6984 1.9537 2.6067c.3507.4785.6354.8859.6354.9062 0-.0644-.3914-.4712-.5886-.61-.5705-.4032-1.2445-.6919-1.9536-.835-.3246-.0671-.6561-.1141-.9875-.1235-.0946-.0031-.2729-.0047-.3998-.0047-.5523 0-.6537.0082-.76.0503-.2482.1063-.3482.2320-.3998.5078L7.6847 23.5704l-.0067-4.6855.0353.0703c.0236.0443.0658.0911.1174.1262l.0704.0473h.4570c.4021 0 .4679-.0071.5429-.0445.0984-.0516.1454-.0984.2064-.2134.0423-.0798.0449-.2158.0516-.596.0048-1.9303.0141-3.5116.0235-3.509.0094 0 1.098 1.5996 2.4211 3.556l2.4047 3.5583 1.919 2.592c1.0556 1.4262 1.9355 2.6061 1.9543 2.62.0281.0236-.0118.0517-.2183.1573-1.3465.6873-2.712 1.0860-4.3237 1.2643-.3636.04-1.9354.04-2.299 0-.9337-.1032-1.7548-.2744-2.5337-.5255C4.157 19.9244.9499 16.1385.2979 11.6325c-.096-.6592-.108-1.0884-.108-1.7476s.012-1.0884.108-1.7474C.6504 6.1904 1.4006 4.4078 2.8154 2.9936 4.7366.1671 7.9295-1.6719 11.3383-1.9792.5135-2.0172.6748-2.0392.9141-2.0392c.2393 0 .4006.0220.9141.060z" fill="#000"/>
  <path d="M16.8719 8.9981l-.0234.0329c-.3914.5456-.7830 1.0911-1.1746 1.6367-.3915.5456-.7830 1.0911-1.1746 1.6367-.3915.5456-.7831 1.0911-1.1746 1.6367l-.0235.0329h2.349l.0235-.0329c.3915-.5456.7831-1.0911 1.1746-1.6367.3916-.5456.7831-1.0911 1.1746-1.6367.3916-.5456.7832-1.0911 1.1746-1.6367l.0234-.0329h-2.349z" fill="#000"/>
</svg>
